#!OML:ASF E:\motion texture\Top Level 1\Subject 1\Session 1\male.ASF
:FULLY-SPECIFIED
:DEGREES
227
root 0.674713 18.0052 3.76341 470.792 -77.3763 -472.065
lowerback 4.7807 1.34161 9.96427
upperback -0.324958 2.32964 4.32671
thorax -2.80968 0.970895 -1.23151
lowerneck -17.9099 -4.64649 -6.12064
upperneck 13.1095 -5.87728 6.43014
head 7.33508 -2.54573 2.41921
rclavicle -9.1076e-015 -4.6118e-014
rhumerus 1.57594 23.3252 -85.2677
rradius 79.3136
rwrist -5.57873
rhand -14.1968 -9.61218
rfingers 7.12502
rthumb 11.9393 -39.2517
lclavicle -9.1076e-015 -4.6118e-014
lhumerus -45.5931 16.7542 61.994
lradius 21.5719
lwrist -28.5478
lhand -9.18995 11.3295
lfingers 7.12502
lthumb 16.7636 40.6257
rfemur -4.44863 7.65883 38.746
rtibia 21.2858
rfoot 350.813 -5.74039
rtoes 18.2354
lfemur -67.5185 10.2174 -8.58089
ltibia 58.5683
lfoot 186.596 6.14955
ltoes 0.411376
228
root 0.545595 18.0204 3.76195 471.44 -77.2151 -472.894
lowerback 4.95285 1.468 10.1721
upperback -0.268582 2.52647 4.27586
thorax -2.81846 1.06569 -1.41433
lowerneck -17.8889 -4.70516 -6.1236
upperneck 13.0726 -5.95482 6.42653
head 7.32452 -2.58393 2.40921
rclavicle 1.52373e-014 5.00937e-014
rhumerus 3.23177 23.5344 -84.5321
rradius 79.4998
rwrist -5.62022
rhand -14.1776 -9.38684
rfingers 7.12502
rthumb 11.9578 -39.0253
lclavicle 1.52373e-014 5.00937e-014
lhumerus -46.3062 15.8462 61.49
lradius 21.7032
lwrist -28.2191
lhand -9.0592 11.053
lfingers 7.12502
lthumb 16.8895 40.3386
rfemur -3.50734 7.84836 38.9524
rtibia 20.8325
rfoot 350.741 -5.77899
rtoes 17.9512
lfemur -70.0827 10.0752 -8.93603
ltibia 57.4658
lfoot 186.555 6.21454
ltoes 0.421808
229
root 0.414799 18.0347 3.76064 472.005 -77.0825 -473.627
lowerback 5.10477 1.5813 10.3408
upperback -0.222584 2.70267 4.22771
thorax -2.82887 1.15074 -1.57162
lowerneck -17.8685 -4.76275 -6.1292
upperneck 13.043 -6.03015 6.42051
head 7.31631 -2.62136 2.39913
rclavicle -5.91384e-015 1.21259e-014
rhumerus 4.81409 23.7252 -83.7892
rradius 79.5894
rwrist -5.68589
rhand -14.1925 -9.22064
rfingers 7.12502
rthumb 11.9435 -38.8599
lclavicle -5.91384e-015 1.21259e-014
lhumerus -47.0219 14.9827 61.0256
lradius 21.8741
lwrist -27.9119
lhand -8.90848 10.8178
lfingers 7.12502
lthumb 17.0345 40.0909
rfemur -2.59724 7.97982 39.114
rtibia 20.4034
rfoot 350.676 -5.77217
rtoes 17.6499
lfemur -72.5411 9.86643 -9.2525
ltibia 56.5734
lfoot 186.583 6.31104
ltoes 0.40211
230
root 0.283095 18.0484 3.75898 472.496 -76.9789 -474.273
lowerback 5.24185 1.68061 10.463
upperback -0.185481 2.85711 4.18345
thorax -2.84353 1.2255 -1.69814
lowerneck -17.8408 -4.81669 -6.13921
upperneck 13.0175 -6.10056 6.41701
head 7.30808 -2.65657 2.39131
rclavicle -2.78547e-014 -9.0447e-014
rhumerus 6.30796 23.8981 -83.0611
rradius 79.5888
rwrist -5.76842
rhand -14.2334 -9.11062
rfingers 7.12502
rthumb 11.904 -38.7522
lclavicle -2.78547e-014 -9.0447e-014
lhumerus -47.7454 14.1527 60.6115
lradius 22.0989
lwrist -27.5186
lhand -8.72007 10.6113
lfingers 7.12502
lthumb 17.2159 39.8687
rfemur -1.71931 8.0667 39.2356
rtibia 20.0042
rfoot 350.619 -5.73445
rtoes 17.3414
lfemur -74.8841 9.60674 -9.52775
ltibia 55.8842
lfoot 186.678 6.43044
ltoes 0.347756
231
root 0.151147 18.0619 3.7567 472.889 -76.9092 -474.822
lowerback 5.37934 1.76354 10.5326
upperback -0.155559 2.98814 4.14301
thorax -2.87037 1.28897 -1.79099
lowerneck -17.8123 -4.86661 -6.14987
upperneck 13.0044 -6.16599 6.41286
head 7.30349 -2.68945 2.38401
rclavicle -3.91357e-015 -4.96962e-015
rhumerus 7.69599 24.0475 -82.367
rradius 79.5106
rwrist -5.85941
rhand -14.2704 -9.02118
rfingers 7.12502
rthumb 11.8684 -38.6648
lclavicle -3.91357e-015 -4.96962e-015
lhumerus -48.4774 13.359 60.2466
lradius 22.3735
lwrist -26.998
lhand -8.49442 10.4125
lfingers 7.12502
lthumb 17.4331 39.6508
rfemur -0.867176 8.11407 39.3192
rtibia 19.6408
rfoot 350.565 -5.67992
rtoes 17.0375
lfemur -77.0941 9.2982 -9.76411
ltibia 55.3933
lfoot 186.833 6.55848
ltoes 0.253314
232
root 0.0194657 18.0754 3.75376 473.175 -76.8723 -475.259
lowerback 5.5214 1.82825 10.5525
upperback -0.134928 3.09408 4.10795
thorax -2.91458 1.33991 -1.85027
lowerneck -17.7866 -4.91063 -6.16424
upperneck 13.0074 -6.22344 6.40958
head 7.30423 -2.71846 2.37853
rclavicle 7.32242e-015 4.03533e-014
rhumerus 8.95851 24.1677 -81.7268
rradius 79.3681
rwrist -5.92687
rhand -14.275 -8.93538
rfingers 7.12502
rthumb 11.864 -38.5793
lclavicle 7.32242e-015 4.03533e-014
lhumerus -49.222 12.6316 59.9105
lradius 22.6871
lwrist -26.3793
lhand -8.2319 10.2127
lfingers 7.12502
lthumb 17.6857 39.4284
rfemur -0.056579 8.11894 39.3679
rtibia 19.3313
rfoot 350.513 -5.60922
rtoes 16.721
lfemur -79.1584 8.95127 -9.96291
ltibia 55.1066
lfoot 187.031 6.68918
ltoes 0.0888183
233
root -0.111726 18.089 3.75034 473.35 -76.8645 -475.577
lowerback 5.66792 1.87655 10.5299
upperback -0.127523 3.17793 4.07918
thorax -2.98001 1.3794 -1.87913
lowerneck -17.7595 -4.94941 -6.1868
upperneck 13.0294 -6.27382 6.41121
head 7.31092 -2.74397 2.37685
rclavicle -2.93052e-015 -3.43897e-014
rhumerus 10.0749 24.2479 -81.1547
rradius 79.1769
rwrist -5.94747
rhand -14.2063 -8.85257
rfingers 7.12502
rthumb 11.9302 -38.4926
lclavicle -2.93052e-015 -3.43897e-014
lhumerus -49.9793 11.9442 59.626
lradius 23.0503
lwrist -25.654
lhand -7.93337 10.0189
lfingers 7.12502
lthumb 17.9729 39.2084
rfemur 0.705135 8.08506 39.3869
rtibia 19.0769
rfoot 350.471 -5.52531
rtoes 16.3253
lfemur -81.0801 8.57392 -10.1278
ltibia 55.0103
lfoot 187.266 6.80555
ltoes -0.103174
234
root -0.242467 18.1027 3.74673 473.42 -76.8761 -475.778
lowerback 5.8145 1.91222 10.4802
upperback -0.130842 3.24443 4.05717
thorax -3.06045 1.40983 -1.88558
lowerneck -17.743 -4.98575 -6.21193
upperneck 13.0741 -6.32059 6.41076
head 7.32664 -2.76771 2.37515
rclavicle 1.47644e-014 2.50469e-014
rhumerus 11.0379 24.2793 -80.6582
rradius 78.9524
rwrist -5.90494
rhand -14.0753 -8.75706
rfingers 7.12502
rthumb 12.0565 -38.3897
lclavicle 1.47644e-014 2.50469e-014
lhumerus -50.7302 11.3384 59.3661
lradius 23.4322
lwrist -24.9219
lhand -7.63641 9.81701
lfingers 7.12502
lthumb 18.2587 38.9801
rfemur 1.40912 8.01223 39.3834
rtibia 18.8865
rfoot 350.435 -5.42045
rtoes 15.855
lfemur -82.854 8.17909 -10.2562
ltibia 55.095
lfoot 187.514 6.90236
ltoes -0.277476
235
root -0.372826 18.1162 3.74321 473.391 -76.8975 -475.855
lowerback 5.94922 1.93845 10.4202
upperback -0.1486 3.29737 4.04135
thorax -3.15186 1.43287 -1.87904
lowerneck -17.7407 -5.02096 -6.24151
upperneck 13.1439 -6.36533 6.40999
head 7.35301 -2.79028 2.37404
rclavicle -1.14503e-014 -2.18663e-014
rhumerus 11.8326 24.2564 -80.2487
rradius 78.7101
rwrist -5.79196
rhand -13.8635 -8.64853
rfingers 7.12502
rthumb 12.2607 -38.2691
lclavicle -1.14503e-014 -2.18663e-014
lhumerus -51.4725 10.7882 59.1494
lradius 23.8407
lwrist -24.195
lhand -7.37327 9.62632
lfingers 7.12502
lthumb 18.5118 38.7655
rfemur 2.04007 7.9034 39.3644
rtibia 18.7627
rfoot 350.404 -5.2867
rtoes 15.3067
lfemur -84.4882 7.77849 -10.3494
ltibia 55.3425
lfoot 187.74 6.97759
ltoes -0.395868
